<svg width="20" height="20" viewBox="0 0 20 20" fill="none" xmlns="http://www.w3.org/2000/svg">
<path fill-rule="evenodd" clip-rule="evenodd" d="M8.125 1.875C7.62772 1.875 7.15081 2.07254 6.79917 2.42417C6.44754 2.77581 6.25 3.25272 6.25 3.75V4.375H4.375H3.125C2.77982 4.375 2.5 4.65482 2.5 5C2.5 5.34518 2.77982 5.625 3.125 5.625H3.75V16.875C3.75 17.2065 3.8817 17.5245 4.11612 17.7589C4.35054 17.9933 4.66848 18.125 5 18.125H15C15.3315 18.125 15.6495 17.9933 15.8839 17.7589C16.1183 17.5245 16.25 17.2065 16.25 16.875V5.625H16.875C17.2202 5.625 17.5 5.34518 17.5 5C17.5 4.65482 17.2202 4.375 16.875 4.375H15.625H13.75V3.75C13.75 3.25272 13.5525 2.77581 13.2008 2.42417C12.8492 2.07254 12.3723 1.875 11.875 1.875H8.125ZM12.5 4.375V3.75C12.5 3.58424 12.4342 3.42527 12.3169 3.30806C12.1997 3.19085 12.0408 3.125 11.875 3.125H8.125C7.95924 3.125 7.80027 3.19085 7.68306 3.30806C7.56585 3.42527 7.5 3.58424 7.5 3.75V4.375H12.5ZM6.875 5.625H5V16.875H15V5.625H13.125H6.875ZM8.125 8.125C8.47018 8.125 8.75 8.40482 8.75 8.75V13.75C8.75 14.0952 8.47018 14.375 8.125 14.375C7.77982 14.375 7.5 14.0952 7.5 13.75V8.75C7.5 8.40482 7.77982 8.125 8.125 8.125ZM12.5 13.75V8.75C12.5 8.40482 12.2202 8.125 11.875 8.125C11.5298 8.125 11.25 8.40482 11.25 8.75V13.75C11.25 14.0952 11.5298 14.375 11.875 14.375C12.2202 14.375 12.5 14.0952 12.5 13.75Z" fill="#5E656B"/>
</svg>
